<svg width="32" height="32" viewBox="0 0 32 32" fill="none" xmlns="http://www.w3.org/2000/svg">
<g clip-path="url(#clip0_1_387)">
<path d="M16 2.66675C8.64 2.66675 2.66667 8.64008 2.66667 16.0001C2.66667 23.3601 8.64 29.3334 16 29.3334C23.36 29.3334 29.3333 23.3601 29.3333 16.0001C29.3333 8.64008 23.36 2.66675 16 2.66675ZM16 6.66675C18.2133 6.66675 20 8.45341 20 10.6667C20 12.8801 18.2133 14.6667 16 14.6667C13.7867 14.6667 12 12.8801 12 10.6667C12 8.45341 13.7867 6.66675 16 6.66675ZM16 25.6001C12.6667 25.6001 9.72 23.8934 8 21.3067C8.04 18.6534 13.3333 17.2001 16 17.2001C18.6533 17.2001 23.96 18.6534 24 21.3067C22.28 23.8934 19.3333 25.6001 16 25.6001Z" fill="white"/>
</g>
<defs>
<clipPath id="clip0_1_387">
<rect width="32" height="32" fill="white"/>
</clipPath>
</defs>
</svg>
