<svg width="40" height="40" viewBox="0 0 40 40" fill="none" xmlns="http://www.w3.org/2000/svg">
<path fill-rule="evenodd" clip-rule="evenodd" d="M0.938221 4.49188C0 6.29803 0 8.67091 0 13.4167V26.5833C0 31.3291 0 33.702 0.938221 35.5081C1.72885 37.0301 2.96985 38.2711 4.49188 39.0618C6.29803 40 8.67091 40 13.4167 40H26.5833C31.3291 40 33.702 40 35.5081 39.0618C37.0301 38.2711 38.2711 37.0301 39.0618 35.5081C40 33.702 40 31.3291 40 26.5833V13.4167C40 8.67091 40 6.29803 39.0618 4.49188C38.2711 2.96985 37.0301 1.72885 35.5081 0.938221C33.702 0 31.3291 0 26.5833 0H13.4167C8.67091 0 6.29803 0 4.49188 0.938221C2.96985 1.72885 1.72885 2.96985 0.938221 4.49188ZM31.1153 15.8764C31.1153 15.6266 31.1121 15.3769 31.1024 15.127C32.1371 14.3207 33.0329 13.3102 33.7445 12.1632C32.796 12.6175 31.7732 12.9239 30.7008 13.0601C31.7968 12.356 32.6356 11.232 33.0329 9.89199C32.0079 10.5506 30.8752 11.0276 29.6662 11.2774C28.7004 10.1645 27.3244 9.47168 25.801 9.47168C22.8746 9.47168 20.5028 12.0382 20.5028 15.2066C20.5028 15.6495 20.5491 16.0923 20.6395 16.5125C16.2371 16.274 12.3321 13.9914 9.72011 10.5164C9.26146 11.3681 9.00091 12.3561 9.00091 13.4009C9.00091 15.3882 9.93653 17.1484 11.3599 18.1818C10.491 18.1477 9.67276 17.8867 8.95786 17.4665V17.5347C8.95786 20.3169 10.7849 22.6335 13.2106 23.1559C12.7627 23.2922 12.2955 23.3603 11.8142 23.3603C11.4729 23.3603 11.1392 23.3261 10.8151 23.258C11.4902 25.5292 13.4475 27.1986 15.7655 27.2326C13.9524 28.7771 11.6667 29.6971 9.18504 29.6971C8.75761 29.6971 8.33663 29.663 7.92212 29.6175C10.2671 31.2415 13.0502 32.1954 16.0433 32.1954C25.787 32.1954 31.1153 23.451 31.1153 15.8764Z" fill="white"/>
</svg>
