<svg width="40" height="40" viewBox="0 0 40 40" fill="none" xmlns="http://www.w3.org/2000/svg">
<path fill-rule="evenodd" clip-rule="evenodd" d="M0.938221 4.49188C0 6.29803 0 8.67091 0 13.4167V26.5833C0 31.3291 0 33.702 0.938221 35.5081C1.72885 37.0301 2.96985 38.2711 4.49188 39.0618C6.29803 40 8.67091 40 13.4167 40H26.5833C31.3291 40 33.702 40 35.5081 39.0618C37.0301 38.2711 38.2711 37.0301 39.0618 35.5081C40 33.702 40 31.3291 40 26.5833V13.4167C40 8.67091 40 6.29803 39.0618 4.49188C38.2711 2.96985 37.0301 1.72885 35.5081 0.938221C33.702 0 31.3291 0 26.5833 0H13.4167C8.67091 0 6.29803 0 4.49188 0.938221C2.96985 1.72885 1.72885 2.96985 0.938221 4.49188ZM28.6666 19.9996L27.7777 25.5551H23.3333V39.9996H16.6666V25.5551H11.6666V19.9996H16.6666V15.5551C16.6666 10.5551 19.8888 7.77734 24.4444 7.77734C25.8888 7.77734 27.4444 7.99957 28.8888 8.22179V13.3329H26.3333C23.8888 13.3329 23.3333 14.5551 23.3333 16.1107V19.9996H28.6666Z" fill="white"/>
</svg>
