<svg width="40" height="40" viewBox="0 0 40 40" fill="none" xmlns="http://www.w3.org/2000/svg">
<path fill-rule="evenodd" clip-rule="evenodd" d="M0.938221 4.49188C0 6.29803 0 8.67091 0 13.4167V26.5833C0 31.3291 0 33.702 0.938221 35.5081C1.72885 37.0301 2.96985 38.2711 4.49188 39.0618C6.29803 40 8.67091 40 13.4167 40H26.5833C31.3291 40 33.702 40 35.5081 39.0618C37.0301 38.2711 38.2711 37.0301 39.0618 35.5081C40 33.702 40 31.3291 40 26.5833V13.4167C40 8.67091 40 6.29803 39.0618 4.49188C38.2711 2.96985 37.0301 1.72885 35.5081 0.938221C33.702 0 31.3291 0 26.5833 0H13.4167C8.67091 0 6.29803 0 4.49188 0.938221C2.96985 1.72885 1.72885 2.96985 0.938221 4.49188ZM13.9804 5.54198C15.5318 5.47137 16.0276 5.4541 19.9777 5.4541H19.9732C23.9246 5.4541 24.4185 5.47137 25.97 5.54198C27.5184 5.61289 28.576 5.85804 29.5032 6.21774C30.4608 6.58895 31.2698 7.08592 32.0789 7.89501C32.888 8.7035 33.3849 9.51501 33.7576 10.4717C34.1152 11.3965 34.3606 12.4535 34.4334 14.002C34.5031 15.5535 34.5212 16.0493 34.5212 19.9996C34.5212 23.9499 34.5031 24.4444 34.4334 25.9959C34.3606 27.5438 34.1152 28.6011 33.7576 29.5262C33.3849 30.4826 32.888 31.2941 32.0789 32.1026C31.2707 32.9117 30.4605 33.4099 29.5041 33.7814C28.5787 34.1411 27.5205 34.3862 25.9721 34.4571C24.4206 34.5277 23.9264 34.545 19.9759 34.545C16.026 34.545 15.5306 34.5277 13.9791 34.4571C12.431 34.3862 11.3738 34.1411 10.4483 33.7814C9.4923 33.4099 8.68081 32.9117 7.87266 32.1026C7.06389 31.2941 6.56694 30.4826 6.19513 29.5259C5.83575 28.6011 5.5906 27.5441 5.51939 25.9956C5.44909 24.4441 5.43152 23.9499 5.43152 19.9996C5.43152 16.0493 5.4497 15.5532 5.51909 14.0017C5.58879 12.4538 5.83423 11.3965 6.19483 10.4714C6.56754 9.51501 7.0645 8.7035 7.87357 7.89501C8.68203 7.08622 9.49352 6.58925 10.4502 6.21774C11.375 5.85804 12.4319 5.61289 13.9804 5.54198ZM19.493 8.07517C19.1988 8.07504 18.9263 8.07492 18.6729 8.07531V8.07168C15.9621 8.07471 15.4421 8.09289 14.1003 8.1535C12.6822 8.21865 11.9122 8.45501 11.3995 8.65501C10.7208 8.91925 10.2359 9.2344 9.72684 9.74349C9.21777 10.2526 8.90202 10.7374 8.63839 11.4162C8.43931 11.9289 8.20234 12.6986 8.1375 14.1168C8.0678 15.6502 8.05386 16.1083 8.05386 19.9926C8.05386 23.8768 8.0678 24.3374 8.1375 25.8708C8.20204 27.2889 8.43931 28.0586 8.63839 28.5708C8.90263 29.2499 9.21777 29.7335 9.72684 30.2426C10.2359 30.7517 10.7208 31.0668 11.3995 31.3305C11.9125 31.5296 12.6822 31.7665 14.1003 31.832C15.6336 31.9017 16.0939 31.9168 19.9777 31.9168C23.8613 31.9168 24.3219 31.9017 25.8551 31.832C27.2733 31.7671 28.0436 31.5308 28.5557 31.3308C29.2347 31.0671 29.7181 30.752 30.2271 30.2429C30.7362 29.7341 31.052 29.2508 31.3156 28.572C31.5147 28.0599 31.7516 27.2902 31.8165 25.872C31.8862 24.3386 31.9013 23.878 31.9013 19.9962C31.9013 16.1144 31.8862 15.6538 31.8165 14.1205C31.7519 12.7023 31.5147 11.9326 31.3156 11.4205C31.0513 10.7417 30.7362 10.2568 30.2271 9.74774C29.7184 9.23865 29.2344 8.9235 28.5557 8.65986C28.043 8.46077 27.2733 8.2238 25.8551 8.15895C24.3216 8.08925 23.8613 8.07531 19.9777 8.07531C19.8099 8.07531 19.6484 8.07524 19.493 8.07517ZM25.9963 12.2353C25.9963 11.2714 26.7781 10.4905 27.7418 10.4905V10.4899C28.7054 10.4899 29.4872 11.2717 29.4872 12.2353C29.4872 13.1989 28.7054 13.9808 27.7418 13.9808C26.7781 13.9808 25.9963 13.1989 25.9963 12.2353ZM12.5083 19.9996C12.5083 15.8745 15.8525 12.53 19.9774 12.5299C24.1025 12.5299 27.446 15.8744 27.446 19.9996C27.446 24.1247 24.1028 27.4677 19.9777 27.4677C15.8527 27.4677 12.5083 24.1247 12.5083 19.9996ZM24.8261 19.9996C24.8261 17.3217 22.6552 15.1511 19.9777 15.1511C17.2999 15.1511 15.1294 17.3217 15.1294 19.9996C15.1294 22.6771 17.2999 24.848 19.9777 24.848C22.6552 24.848 24.8261 22.6771 24.8261 19.9996Z" fill="white"/>
</svg>
