<svg width="40" height="40" viewBox="0 0 40 40" fill="none" xmlns="http://www.w3.org/2000/svg">
<path fill-rule="evenodd" clip-rule="evenodd" d="M0.938221 4.49188C0 6.29803 0 8.67091 0 13.4167V26.5833C0 31.3291 0 33.702 0.938221 35.5081C1.72885 37.0301 2.96985 38.2711 4.49188 39.0618C6.29803 40 8.67091 40 13.4167 40H26.5833C31.3291 40 33.702 40 35.5081 39.0618C37.0301 38.2711 38.2711 37.0301 39.0618 35.5081C40 33.702 40 31.3291 40 26.5833V13.4167C40 8.67091 40 6.29803 39.0618 4.49188C38.2711 2.96985 37.0301 1.72885 35.5081 0.938221C33.702 0 31.3291 0 26.5833 0H13.4167C8.67091 0 6.29803 0 4.49188 0.938221C2.96985 1.72885 1.72885 2.96985 0.938221 4.49188ZM8.97817 12.4224C10.8946 12.4224 12.4482 10.8688 12.4482 8.95241C12.4482 7.03599 10.8946 5.48242 8.97817 5.48242C7.06175 5.48242 5.50818 7.03599 5.50818 8.95241C5.50818 10.8688 7.06175 12.4224 8.97817 12.4224ZM15.6261 14.9868H21.377V17.6214C21.377 17.6214 22.9376 14.5002 27.1837 14.5002C30.9714 14.5002 34.1091 16.3661 34.1091 22.0536V34.0469H28.1496V23.5069C28.1496 20.1518 26.3584 19.7828 24.9935 19.7828C22.1608 19.7828 21.6758 22.2261 21.6758 23.9445V34.0469H15.6261V14.9868ZM12.0031 14.9868H5.95329V34.0469H12.0031V14.9868Z" fill="white"/>
</svg>
