<svg width="48" height="48" viewBox="0 0 48 48" fill="none" xmlns="http://www.w3.org/2000/svg">
<g clip-path="url(#clip0_0_364)">
<path d="M44 32V8C44 5.8 42.2 4 40 4H16C13.8 4 12 5.8 12 8V32C12 34.2 13.8 36 16 36H40C42.2 36 44 34.2 44 32ZM22.8 25.06L26.06 29.42L31.22 22.98C31.62 22.48 32.38 22.48 32.78 22.98L38.7 30.38C39.22 31.04 38.76 32 37.92 32H18C17.18 32 16.7 31.06 17.2 30.4L21.2 25.06C21.6 24.54 22.4 24.54 22.8 25.06ZM4 14V40C4 42.2 5.8 44 8 44H34C35.1 44 36 43.1 36 42C36 40.9 35.1 40 34 40H10C8.9 40 8 39.1 8 38V14C8 12.9 7.1 12 6 12C4.9 12 4 12.9 4 14Z" fill="black"/>
</g>
<defs>
<clipPath id="clip0_0_364">
<rect width="48" height="48" fill="white"/>
</clipPath>
</defs>
</svg>
