<svg width="96" height="47" viewBox="0 0 96 47" fill="none" xmlns="http://www.w3.org/2000/svg">
<path d="M1.088 44.16V43.776C4.288 43.776 5.888 42.688 5.888 40.512V9.216C5.888 7.808 5.376 6.848 4.48 6.336C3.52 5.824 2.048 5.632 0 5.824V5.376C2.368 4.992 4.928 4.352 7.68 3.328C10.432 2.304 12.672 1.216 14.336 0V40.512C14.336 42.688 15.936 43.776 19.136 43.776V44.16H1.088Z" fill="black"/>
<path d="M40.9005 44.8C39.1085 44.8 37.3165 44.352 35.5245 43.456C33.7325 42.624 32.0685 41.344 30.4685 39.68C28.8045 38.016 27.5245 35.712 26.5005 32.64C25.4765 29.568 25.0285 26.048 25.0285 22.08C25.0285 18.112 25.4765 14.656 26.5005 11.648C27.5245 8.704 28.8045 6.4 30.4685 4.8C32.0685 3.2 33.7325 1.984 35.5245 1.216C37.2525 0.448002 39.0445 0.064003 40.9005 0V0.384003C39.4285 0.640003 38.2125 1.408 37.1885 2.56C36.1645 3.776 35.2685 6.016 34.5645 9.28C33.7965 12.608 33.4765 16.832 33.4765 22.08C33.4765 36.16 35.9085 43.584 40.9005 44.416V44.8ZM43.6525 44.8V44.416C48.5165 43.584 51.0125 36.16 51.0125 22.08C51.0125 18.112 50.8205 14.656 50.4365 11.84C50.0525 9.024 49.4765 6.784 48.7725 5.248C48.0685 3.712 47.3005 2.56 46.4685 1.792C45.6365 1.024 44.6765 0.576 43.6525 0.384003V0C45.0605 0.064003 46.4685 0.32 47.8765 0.768002C49.2845 1.216 50.6925 1.984 52.1005 3.072C53.5085 4.224 54.7245 5.568 55.8125 7.168C56.8365 8.768 57.7325 10.88 58.4365 13.44C59.0765 16 59.4605 18.88 59.4605 22.08C59.4605 26.048 58.9485 29.568 57.9245 32.64C56.9005 35.712 55.6205 38.016 54.0205 39.68C52.3565 41.344 50.6925 42.624 48.9645 43.456C47.1725 44.352 45.4445 44.8 43.6525 44.8Z" fill="black"/>
<path d="M71.2095 46.1602L90.9552 16.1602H91.9263L72.1806 46.1602H71.2095ZM73.0708 31.0385C71.4523 31.0385 70.117 30.4304 69.1054 29.1737C68.0534 27.9575 67.5679 26.2142 67.5679 23.9845C67.5679 21.7953 68.0534 20.0926 69.065 18.8358C70.0765 17.6196 71.4118 16.971 73.0708 16.971C74.6893 16.971 76.0245 17.6196 77.0361 18.8358C78.0476 20.052 78.5737 21.7953 78.5737 23.9845C78.5737 26.2142 78.0476 27.9575 77.0361 29.1737C76.0245 30.4304 74.6893 31.0385 73.0708 31.0385ZM73.0708 30.7953C73.9609 30.7953 74.6083 30.3088 75.0939 29.2953C75.5794 28.3223 75.8222 26.5385 75.8222 23.9845C75.8222 21.471 75.5794 19.6872 75.1343 18.7142C74.6488 17.7412 73.9609 17.2142 73.0708 17.2142C72.1401 17.2142 71.4523 17.7412 71.0072 18.7142C70.5216 19.6872 70.3193 21.471 70.3193 23.9845C70.3193 26.5385 70.5216 28.3223 71.0072 29.2953C71.4927 30.3088 72.1806 30.7953 73.0708 30.7953ZM90.065 45.3493C88.4465 45.3493 87.1112 44.7412 86.0997 43.4845C85.0476 42.2683 84.5621 40.525 84.5621 38.2953C84.5621 36.1061 85.0476 34.4034 86.0592 33.1466C87.0708 31.9304 88.406 31.2818 90.065 31.2818C91.6835 31.2818 93.0187 31.9304 94.0303 33.1466C95.0419 34.3629 95.5679 36.1061 95.5679 38.2953C95.5679 40.525 95.0419 42.2683 94.0303 43.4845C93.0187 44.7412 91.6835 45.3493 90.065 45.3493ZM90.065 45.1061C90.9552 45.1061 91.643 44.6196 92.1286 43.6061C92.5737 42.6331 92.8164 40.8493 92.8164 38.2953C92.8164 35.7818 92.5737 33.998 92.1286 33.025C91.643 32.052 90.9552 31.525 90.065 31.525C89.1748 31.525 88.4869 32.052 88.0014 33.025C87.5158 33.998 87.3135 35.7818 87.3135 38.2953C87.3135 40.8493 87.5158 42.6331 88.0014 43.6061C88.4869 44.6196 89.1748 45.1061 90.065 45.1061Z" fill="black"/>
</svg>
