<svg width="32" height="32" viewBox="0 0 32 32" fill="none" xmlns="http://www.w3.org/2000/svg">
<g clip-path="url(#clip0_0_392)">
<path d="M16 2.66675C8.64 2.66675 2.66667 8.64008 2.66667 16.0001C2.66667 23.3601 8.64 29.3334 16 29.3334C23.36 29.3334 29.3333 23.3601 29.3333 16.0001C29.3333 8.64008 23.36 2.66675 16 2.66675ZM16 24.6667C14.8933 24.6667 14 23.7734 14 22.6667H18C18 23.7734 17.1067 24.6667 16 24.6667ZM22.6667 21.3334H9.33333V20.0001L10.6667 18.6667V15.1867C10.6667 12.3601 12.04 9.96008 14.6667 9.33341V8.66675C14.6667 7.90675 15.24 7.33342 16 7.33342C16.76 7.33342 17.3333 7.90675 17.3333 8.66675V9.33341C19.96 9.96008 21.3333 12.3734 21.3333 15.1867V18.6667L22.6667 20.0001V21.3334Z" fill="white"/>
<circle cx="25" cy="7" r="4" fill="#FF0000"/>
</g>
<defs>
<clipPath id="clip0_0_392">
<rect width="32" height="32" fill="white"/>
</clipPath>
</defs>
</svg>
