<svg width="48" height="48" viewBox="0 0 48 48" fill="none" xmlns="http://www.w3.org/2000/svg">
<g clip-path="url(#clip0_0_358)">
<path d="M27.62 5.71952C27.96 5.11952 27.62 4.31952 26.92 4.23952C21.68 3.49952 16.32 4.79952 12.04 7.95952C11.66 8.25952 11.54 8.81952 11.8 9.25952L17.82 19.6995C18.2 20.3595 19.16 20.3595 19.56 19.6995L27.62 5.71952ZM42.6 16.6595C40.64 11.7195 36.76 7.73952 31.9 5.65952C31.44 5.45952 30.9 5.65952 30.64 6.09952L24.62 16.5195C24.24 17.1595 24.72 17.9995 25.5 17.9995H41.66C42.36 17.9995 42.86 17.2995 42.6 16.6595ZM42.74 19.9995H30.34C29.58 19.9995 29.08 20.8395 29.48 21.4995L38 36.2795C38.34 36.8795 39.2 36.9795 39.64 36.4395C43.12 32.0795 44.6 26.3795 43.74 20.8595C43.68 20.3595 43.24 19.9995 42.74 19.9995ZM8.35998 11.5795C4.89998 15.9595 3.39998 21.6195 4.25998 27.1595C4.31998 27.6395 4.75998 27.9995 5.25998 27.9995H17.66C18.42 27.9995 18.92 27.1595 18.52 26.4995L9.99998 11.7395C9.63998 11.1395 8.77998 11.0395 8.35998 11.5795ZM5.39998 31.3395C7.35998 36.2795 11.24 40.2595 16.1 42.3395C16.56 42.5395 17.1 42.3395 17.36 41.8995L23.38 31.4795C23.76 30.8195 23.28 29.9795 22.52 29.9795H6.33998C5.63998 29.9995 5.13998 30.6995 5.39998 31.3395ZM21.06 43.7795C26.3 44.5195 31.66 43.2195 35.94 40.0595C36.34 39.7595 36.46 39.1795 36.2 38.7395L30.18 28.2995C29.8 27.6395 28.84 27.6395 28.44 28.2995L20.36 42.2795C20.02 42.8795 20.38 43.6795 21.06 43.7795Z" fill="black"/>
</g>
<defs>
<clipPath id="clip0_0_358">
<rect width="48" height="48" fill="white"/>
</clipPath>
</defs>
</svg>
