<svg width="62" height="62" viewBox="0 0 62 62" fill="none" xmlns="http://www.w3.org/2000/svg">
<g clip-path="url(#clip0_1_1341)">
<path d="M31 5.1665C16.74 5.1665 5.16663 16.7398 5.16663 30.9998C5.16663 45.2598 16.74 56.8332 31 56.8332C45.26 56.8332 56.8333 45.2598 56.8333 30.9998C56.8333 16.7398 45.26 5.1665 31 5.1665ZM34.6425 46.7323V48.2307C34.6425 50.1165 33.0925 51.6665 31.2066 51.6665H31.1808C29.295 51.6665 27.745 50.1165 27.745 48.2307V46.6807C24.3091 45.9573 21.2608 44.0715 19.9691 40.894C19.375 39.4732 20.4858 37.8973 22.0358 37.8973H22.6558C23.6116 37.8973 24.3866 38.5432 24.7483 39.4473C25.4975 41.3848 27.4608 42.7282 31.2325 42.7282C36.2958 42.7282 37.4325 40.1965 37.4325 38.6207C37.4325 36.4765 36.2958 34.4615 30.535 33.0923C24.1283 31.5423 19.7366 28.9073 19.7366 23.6115C19.7366 19.1682 23.3275 16.2748 27.7708 15.319V13.769C27.7708 11.8832 29.3208 10.3332 31.2066 10.3332H31.2325C33.1183 10.3332 34.6683 11.8832 34.6683 13.769V15.3707C38.2333 16.249 40.4808 18.4707 41.4625 21.209C41.9791 22.6298 40.8941 24.1282 39.37 24.1282H38.6983C37.7425 24.1282 36.9675 23.4565 36.7091 22.5265C36.115 20.5632 34.4875 19.2973 31.2325 19.2973C27.3575 19.2973 25.0325 21.054 25.0325 23.534C25.0325 25.704 26.7116 27.1248 31.93 28.4682C37.1483 29.8115 42.7283 32.059 42.7283 38.569C42.6766 43.2965 39.1375 45.8798 34.6425 46.7323Z" fill="black"/>
</g>
<defs>
<clipPath id="clip0_1_1341">
<rect width="62" height="62" fill="white"/>
</clipPath>
</defs>
</svg>
