<svg width="62" height="62" viewBox="0 0 62 62" fill="none" xmlns="http://www.w3.org/2000/svg">
<g clip-path="url(#clip0_1_1349)">
<path d="M35.6758 7.38845C36.115 6.61345 35.6758 5.58011 34.7716 5.47678C28.0033 4.52095 21.08 6.20011 15.5516 10.2818C15.0608 10.6693 14.9058 11.3926 15.2416 11.9609L23.0175 25.4459C23.5083 26.2984 24.7483 26.2984 25.265 25.4459L35.6758 7.38845ZM55.025 21.5193C52.4933 15.1384 47.4816 9.99761 41.2041 7.31095C40.61 7.05261 39.9125 7.31095 39.5766 7.87928L31.8008 21.3384C31.31 22.1651 31.93 23.2501 32.9375 23.2501H53.8108C54.715 23.2501 55.3608 22.3459 55.025 21.5193ZM55.2058 25.8334H39.1891C38.2075 25.8334 37.5616 26.9184 38.0783 27.7709L49.0833 46.8618C49.5225 47.6368 50.6333 47.7659 51.2016 47.0684C55.6966 41.4368 57.6083 34.0743 56.4975 26.9443C56.42 26.2984 55.8516 25.8334 55.2058 25.8334ZM10.7983 14.9576C6.32914 20.6151 4.39164 27.9259 5.50248 35.0818C5.57998 35.7018 6.14831 36.1668 6.79414 36.1668H22.8108C23.7925 36.1668 24.4383 35.0818 23.9216 34.2293L12.9166 15.1643C12.4516 14.3893 11.3408 14.2601 10.7983 14.9576ZM6.97497 40.4809C9.50664 46.8618 14.5183 52.0026 20.7958 54.6893C21.39 54.9476 22.0875 54.6893 22.4233 54.1209L30.1991 40.6618C30.69 39.8093 30.07 38.7243 29.0883 38.7243H8.18914C7.28497 38.7501 6.63914 39.6543 6.97497 40.4809ZM27.2025 56.5493C33.9708 57.5051 40.8941 55.8259 46.4225 51.7443C46.9391 51.3568 47.0941 50.6076 46.7583 50.0393L38.9825 36.5543C38.4916 35.7018 37.2516 35.7018 36.735 36.5543L26.2983 54.6118C25.8591 55.3868 26.3241 56.4201 27.2025 56.5493Z" fill="black"/>
</g>
<defs>
<clipPath id="clip0_1_1349">
<rect width="62" height="62" fill="white"/>
</clipPath>
</defs>
</svg>
