<svg width="179" height="40" viewBox="0 0 179 40" fill="none" xmlns="http://www.w3.org/2000/svg">
<path d="M47.88 28V14H53.64C54.88 14 55.94 14.2 56.82 14.6C57.7133 15 58.4 15.5733 58.88 16.32C59.36 17.0667 59.6 17.9533 59.6 18.98C59.6 20.0067 59.36 20.8933 58.88 21.64C58.4 22.3867 57.7133 22.96 56.82 23.36C55.94 23.76 54.88 23.96 53.64 23.96H49.32L50.48 22.74V28H47.88ZM50.48 23.02L49.32 21.76H53.52C54.6667 21.76 55.5267 21.52 56.1 21.04C56.6867 20.5467 56.98 19.86 56.98 18.98C56.98 18.0867 56.6867 17.4 56.1 16.92C55.5267 16.44 54.6667 16.2 53.52 16.2H49.32L50.48 14.92V23.02ZM62.1517 28V17.32H64.6517V28H62.1517ZM63.4117 15.56C62.9451 15.56 62.5584 15.4133 62.2517 15.12C61.9584 14.8267 61.8117 14.4733 61.8117 14.06C61.8117 13.6333 61.9584 13.28 62.2517 13C62.5584 12.7067 62.9451 12.56 63.4117 12.56C63.8784 12.56 64.2584 12.7 64.5517 12.98C64.8584 13.2467 65.0117 13.5867 65.0117 14C65.0117 14.44 64.8651 14.8133 64.5717 15.12C64.2784 15.4133 63.8917 15.56 63.4117 15.56ZM72.833 28.14C71.713 28.14 70.713 27.9067 69.833 27.44C68.9663 26.96 68.2863 26.3067 67.793 25.48C67.2996 24.6533 67.053 23.7133 67.053 22.66C67.053 21.5933 67.2996 20.6533 67.793 19.84C68.2863 19.0133 68.9663 18.3667 69.833 17.9C70.713 17.4333 71.713 17.2 72.833 17.2C73.873 17.2 74.7863 17.4133 75.573 17.84C76.373 18.2533 76.9796 18.8667 77.393 19.68L75.473 20.8C75.153 20.2933 74.7596 19.92 74.293 19.68C73.8396 19.44 73.3463 19.32 72.813 19.32C72.1996 19.32 71.6463 19.4533 71.153 19.72C70.6596 19.9867 70.273 20.3733 69.993 20.88C69.713 21.3733 69.573 21.9667 69.573 22.66C69.573 23.3533 69.713 23.9533 69.993 24.46C70.273 24.9533 70.6596 25.3333 71.153 25.6C71.6463 25.8667 72.1996 26 72.813 26C73.3463 26 73.8396 25.88 74.293 25.64C74.7596 25.4 75.153 25.0267 75.473 24.52L77.393 25.64C76.9796 26.44 76.373 27.06 75.573 27.5C74.7863 27.9267 73.873 28.14 72.833 28.14ZM83.7108 28.14C82.5374 28.14 81.6308 27.84 80.9908 27.24C80.3508 26.6267 80.0308 25.7267 80.0308 24.54V14.96H82.5308V24.48C82.5308 24.9867 82.6574 25.38 82.9108 25.66C83.1774 25.94 83.5441 26.08 84.0108 26.08C84.5708 26.08 85.0374 25.9333 85.4108 25.64L86.1108 27.42C85.8174 27.66 85.4574 27.84 85.0308 27.96C84.6041 28.08 84.1641 28.14 83.7108 28.14ZM78.2708 19.4V17.4H85.3908V19.4H78.2708ZM92.6873 28.14C91.7807 28.14 90.9807 27.9733 90.2873 27.64C89.594 27.2933 89.054 26.7733 88.6673 26.08C88.2807 25.3733 88.0873 24.4867 88.0873 23.42V17.32H90.5873V23.08C90.5873 24.04 90.8007 24.76 91.2273 25.24C91.6673 25.7067 92.2873 25.94 93.0873 25.94C93.674 25.94 94.1807 25.82 94.6073 25.58C95.0473 25.34 95.3873 24.98 95.6273 24.5C95.8807 24.02 96.0073 23.4267 96.0073 22.72V17.32H98.5073V28H96.1273V25.12L96.5473 26C96.1873 26.6933 95.6607 27.2267 94.9673 27.6C94.274 27.96 93.514 28.14 92.6873 28.14ZM101.781 28V17.32H104.161V20.26L103.881 19.4C104.201 18.68 104.701 18.1333 105.381 17.76C106.074 17.3867 106.934 17.2 107.961 17.2V19.58C107.854 19.5533 107.754 19.54 107.661 19.54C107.567 19.5267 107.474 19.52 107.381 19.52C106.434 19.52 105.681 19.8 105.121 20.36C104.561 20.9067 104.281 21.7267 104.281 22.82V28H101.781ZM115.004 28.14C113.817 28.14 112.777 27.9067 111.884 27.44C111.004 26.96 110.317 26.3067 109.824 25.48C109.344 24.6533 109.104 23.7133 109.104 22.66C109.104 21.5933 109.337 20.6533 109.804 19.84C110.284 19.0133 110.937 18.3667 111.764 17.9C112.604 17.4333 113.557 17.2 114.624 17.2C115.664 17.2 116.59 17.4267 117.404 17.88C118.217 18.3333 118.857 18.9733 119.324 19.8C119.79 20.6267 120.024 21.6 120.024 22.72C120.024 22.8267 120.017 22.9467 120.004 23.08C120.004 23.2133 119.997 23.34 119.984 23.46H111.084V21.8H118.664L117.684 22.32C117.697 21.7067 117.57 21.1667 117.304 20.7C117.037 20.2333 116.67 19.8667 116.204 19.6C115.75 19.3333 115.224 19.2 114.624 19.2C114.01 19.2 113.47 19.3333 113.004 19.6C112.55 19.8667 112.19 20.24 111.924 20.72C111.67 21.1867 111.544 21.74 111.544 22.38V22.78C111.544 23.42 111.69 23.9867 111.984 24.48C112.277 24.9733 112.69 25.3533 113.224 25.62C113.757 25.8867 114.37 26.02 115.064 26.02C115.664 26.02 116.204 25.9267 116.684 25.74C117.164 25.5533 117.59 25.26 117.964 24.86L119.304 26.4C118.824 26.96 118.217 27.3933 117.484 27.7C116.764 27.9933 115.937 28.14 115.004 28.14ZM127.005 28.2C125.912 28.2 124.865 28.0467 123.865 27.74C122.865 27.42 122.072 27.0133 121.485 26.52L122.385 24.5C122.945 24.94 123.638 25.3067 124.465 25.6C125.292 25.8933 126.138 26.04 127.005 26.04C127.738 26.04 128.332 25.96 128.785 25.8C129.238 25.64 129.572 25.4267 129.785 25.16C129.998 24.88 130.105 24.5667 130.105 24.22C130.105 23.7933 129.952 23.4533 129.645 23.2C129.338 22.9333 128.938 22.7267 128.445 22.58C127.965 22.42 127.425 22.2733 126.825 22.14C126.238 22.0067 125.645 21.8533 125.045 21.68C124.458 21.4933 123.918 21.26 123.425 20.98C122.945 20.6867 122.552 20.3 122.245 19.82C121.938 19.34 121.785 18.7267 121.785 17.98C121.785 17.22 121.985 16.5267 122.385 15.9C122.798 15.26 123.418 14.7533 124.245 14.38C125.085 13.9933 126.145 13.8 127.425 13.8C128.265 13.8 129.098 13.9067 129.925 14.12C130.752 14.3333 131.472 14.64 132.085 15.04L131.265 17.06C130.638 16.6867 129.992 16.4133 129.325 16.24C128.658 16.0533 128.018 15.96 127.405 15.96C126.685 15.96 126.098 16.0467 125.645 16.22C125.205 16.3933 124.878 16.62 124.665 16.9C124.465 17.18 124.365 17.5 124.365 17.86C124.365 18.2867 124.512 18.6333 124.805 18.9C125.112 19.1533 125.505 19.3533 125.985 19.5C126.478 19.6467 127.025 19.7933 127.625 19.94C128.225 20.0733 128.818 20.2267 129.405 20.4C130.005 20.5733 130.545 20.8 131.025 21.08C131.518 21.36 131.912 21.74 132.205 22.22C132.512 22.7 132.665 23.3067 132.665 24.04C132.665 24.7867 132.458 25.48 132.045 26.12C131.645 26.7467 131.025 27.2533 130.185 27.64C129.345 28.0133 128.285 28.2 127.005 28.2ZM139.023 28.14C137.85 28.14 136.943 27.84 136.303 27.24C135.663 26.6267 135.343 25.7267 135.343 24.54V14.96H137.843V24.48C137.843 24.9867 137.97 25.38 138.223 25.66C138.49 25.94 138.857 26.08 139.323 26.08C139.883 26.08 140.35 25.9333 140.723 25.64L141.423 27.42C141.13 27.66 140.77 27.84 140.343 27.96C139.917 28.08 139.477 28.14 139.023 28.14ZM133.583 19.4V17.4H140.703V19.4H133.583ZM147.928 28.14C146.835 28.14 145.862 27.9067 145.008 27.44C144.155 26.96 143.482 26.3067 142.988 25.48C142.495 24.6533 142.248 23.7133 142.248 22.66C142.248 21.5933 142.495 20.6533 142.988 19.84C143.482 19.0133 144.155 18.3667 145.008 17.9C145.862 17.4333 146.835 17.2 147.928 17.2C149.035 17.2 150.015 17.4333 150.868 17.9C151.735 18.3667 152.408 19.0067 152.888 19.82C153.382 20.6333 153.628 21.58 153.628 22.66C153.628 23.7133 153.382 24.6533 152.888 25.48C152.408 26.3067 151.735 26.96 150.868 27.44C150.015 27.9067 149.035 28.14 147.928 28.14ZM147.928 26C148.542 26 149.088 25.8667 149.568 25.6C150.048 25.3333 150.422 24.9467 150.688 24.44C150.968 23.9333 151.108 23.34 151.108 22.66C151.108 21.9667 150.968 21.3733 150.688 20.88C150.422 20.3733 150.048 19.9867 149.568 19.72C149.088 19.4533 148.548 19.32 147.948 19.32C147.335 19.32 146.788 19.4533 146.308 19.72C145.842 19.9867 145.468 20.3733 145.188 20.88C144.908 21.3733 144.768 21.9667 144.768 22.66C144.768 23.34 144.908 23.9333 145.188 24.44C145.468 24.9467 145.842 25.3333 146.308 25.6C146.788 25.8667 147.328 26 147.928 26ZM160.919 28.14C159.799 28.14 158.799 27.9067 157.919 27.44C157.052 26.96 156.372 26.3067 155.879 25.48C155.386 24.6533 155.139 23.7133 155.139 22.66C155.139 21.5933 155.386 20.6533 155.879 19.84C156.372 19.0133 157.052 18.3667 157.919 17.9C158.799 17.4333 159.799 17.2 160.919 17.2C161.959 17.2 162.872 17.4133 163.659 17.84C164.459 18.2533 165.066 18.8667 165.479 19.68L163.559 20.8C163.239 20.2933 162.846 19.92 162.379 19.68C161.926 19.44 161.432 19.32 160.899 19.32C160.286 19.32 159.732 19.4533 159.239 19.72C158.746 19.9867 158.359 20.3733 158.079 20.88C157.799 21.3733 157.659 21.9667 157.659 22.66C157.659 23.3533 157.799 23.9533 158.079 24.46C158.359 24.9533 158.746 25.3333 159.239 25.6C159.732 25.8667 160.286 26 160.899 26C161.432 26 161.926 25.88 162.379 25.64C162.846 25.4 163.239 25.0267 163.559 24.52L165.479 25.64C165.066 26.44 164.459 27.06 163.659 27.5C162.872 27.9267 161.959 28.14 160.919 28.14ZM169.582 25.62L169.642 22.48L175.222 17.32H178.222L173.482 22.08L172.162 23.18L169.582 25.62ZM167.542 28V13.16H170.042V28H167.542ZM175.602 28L171.702 23.18L173.282 21.18L178.642 28H175.602Z" fill="white"/>
<path d="M40 0H0V39.9315H40V0Z" fill="white"/>
<path d="M12.9748 13.6627V24.6835C12.9748 26.7216 11.3978 28.3068 9.53396 28.3068H9.17554V10.1904C9.46228 13.5118 12.9748 13.6627 12.9748 13.6627Z" fill="black"/>
<path d="M22.939 27.702C22.939 26.4942 24.0143 25.6639 25.1612 25.9658C25.7347 26.1168 26.2365 26.1923 26.6666 26.1923C27.5985 26.1923 28.3153 25.8149 28.3153 24.8336C28.3153 23.7013 27.1684 23.5503 25.663 23.0974C24.0143 22.4935 22.5806 21.6632 22.5806 19.5496C22.5806 17.2096 24.2293 15.7754 26.7383 15.7754C27.8852 15.7754 29.3189 16.0773 30.3225 16.6812C30.3225 17.889 29.2472 18.7193 28.172 18.4174C27.5985 18.2664 27.0967 18.1909 26.6666 18.1909C25.8064 18.1909 25.1612 18.5683 25.1612 19.3987C25.1612 20.5309 26.2365 20.6064 27.6702 21.0593C29.4623 21.6632 30.896 22.569 30.896 24.7581C30.896 27.1736 29.1755 28.6833 26.5949 28.6833C25.4479 28.6078 24.0143 28.3059 22.939 27.702Z" fill="black"/>
<path d="M22.2224 15.9273C22.2224 20.1544 19.2833 21.8151 14.1937 21.8151H12.9751V18.5692H14.3371C17.4912 18.5692 18.4231 17.8144 18.4231 16.1537C18.4231 14.1156 17.1328 13.6627 14.2654 13.6627H13.4052L13.1901 12.3795L12.4016 10.1904H14.3371C18.4948 10.1904 22.2224 11.3982 22.2224 15.9273Z" fill="black"/>
<path d="M13.405 13.6623H12.9749C12.9749 13.6623 9.53402 13.5113 9.1756 10.19L9.03223 8.5293C9.03223 8.5293 10.5376 10.1145 12.4014 10.19L13.1899 12.379L13.405 13.6623Z" fill="black"/>
<path d="M1.43358 8.52935C1.14685 8.52935 0.860107 8.3029 0.860107 7.92547V1.13184H7.67014C7.95688 1.13184 8.24362 1.35829 8.24362 1.73571C8.24362 2.11314 8.02857 2.33959 7.67014 2.33959H1.93538V8.00096C2.00706 8.22741 1.79201 8.52935 1.43358 8.52935Z" fill="black"/>
<path d="M38.4946 31.4014C38.7813 31.4014 39.0681 31.6278 39.0681 32.0052V38.7989H32.258C31.9713 38.7989 31.6846 38.5724 31.6846 38.195C31.6846 37.8931 31.8996 37.5911 32.258 37.5911H37.9928V31.9298C37.9211 31.7033 38.2079 31.4014 38.4946 31.4014Z" fill="black"/>
</svg>
