<svg width="40" height="40" viewBox="0 0 40 40" fill="none" xmlns="http://www.w3.org/2000/svg">
<rect width="40" height="40" fill="#1E1E1E"/>
<g clip-path="url(#clip0_702_39)">
<rect width="1280" height="3224" transform="translate(-856 -2865)" fill="white"/>
<rect x="-856" y="-81" width="1280" height="440" fill="black"/>
<path d="M40 0H0V39.9315H40V0Z" fill="white"/>
<path d="M12.9748 13.6627V24.6835C12.9748 26.7216 11.3978 28.3068 9.53396 28.3068H9.17554V10.1904C9.46228 13.5118 12.9748 13.6627 12.9748 13.6627Z" fill="black"/>
<path d="M22.939 27.702C22.939 26.4942 24.0143 25.6639 25.1612 25.9658C25.7347 26.1168 26.2365 26.1923 26.6666 26.1923C27.5985 26.1923 28.3153 25.8149 28.3153 24.8336C28.3153 23.7013 27.1684 23.5503 25.663 23.0974C24.0143 22.4935 22.5806 21.6632 22.5806 19.5496C22.5806 17.2096 24.2293 15.7754 26.7383 15.7754C27.8852 15.7754 29.3189 16.0773 30.3225 16.6812C30.3225 17.889 29.2472 18.7193 28.172 18.4174C27.5985 18.2664 27.0967 18.1909 26.6666 18.1909C25.8064 18.1909 25.1612 18.5683 25.1612 19.3987C25.1612 20.5309 26.2365 20.6064 27.6702 21.0593C29.4623 21.6632 30.896 22.569 30.896 24.7581C30.896 27.1736 29.1755 28.6833 26.5949 28.6833C25.4479 28.6078 24.0143 28.3059 22.939 27.702Z" fill="black"/>
<path d="M22.2224 15.9273C22.2224 20.1544 19.2833 21.8151 14.1937 21.8151H12.9751V18.5692H14.3371C17.4912 18.5692 18.4231 17.8144 18.4231 16.1537C18.4231 14.1156 17.1328 13.6627 14.2654 13.6627H13.4052L13.1901 12.3795L12.4016 10.1904H14.3371C18.4948 10.1904 22.2224 11.3982 22.2224 15.9273Z" fill="black"/>
<path d="M13.405 13.6623H12.9749C12.9749 13.6623 9.53402 13.5113 9.1756 10.19L9.03223 8.5293C9.03223 8.5293 10.5376 10.1145 12.4014 10.19L13.1899 12.379L13.405 13.6623Z" fill="black"/>
<path d="M1.43358 8.52935C1.14685 8.52935 0.860107 8.3029 0.860107 7.92547V1.13184H7.67014C7.95688 1.13184 8.24362 1.35829 8.24362 1.73571C8.24362 2.11314 8.02857 2.33959 7.67014 2.33959H1.93538V8.00096C2.00706 8.22741 1.79201 8.52935 1.43358 8.52935Z" fill="black"/>
<path d="M38.4946 31.4014C38.7813 31.4014 39.0681 31.6278 39.0681 32.0052V38.7989H32.258C31.9713 38.7989 31.6846 38.5724 31.6846 38.195C31.6846 37.8931 31.8996 37.5911 32.258 37.5911H37.9928V31.9298C37.9211 31.7033 38.2079 31.4014 38.4946 31.4014Z" fill="black"/>
</g>
<defs>
<clipPath id="clip0_702_39">
<rect width="1280" height="3224" fill="white" transform="translate(-856 -2865)"/>
</clipPath>
</defs>
</svg>
