<svg width="20" height="20" viewBox="0 0 20 20" fill="none" xmlns="http://www.w3.org/2000/svg">
<path fill-rule="evenodd" clip-rule="evenodd" d="M19.5999 10.2276C19.5999 9.51848 19.5363 8.83667 19.4181 8.18213H10V12.0503H15.3818C15.15 13.3003 14.4454 14.3594 13.3863 15.0684V17.5775H16.6181C18.509 15.8366 19.5999 13.273 19.5999 10.2276Z" fill="#4285F4"/>
<path fill-rule="evenodd" clip-rule="evenodd" d="M10 19.9999C12.7 19.9999 14.9636 19.1044 16.6182 17.5771L13.3864 15.0681C12.4909 15.6681 11.3455 16.0226 10 16.0226C7.3955 16.0226 5.19097 14.2635 4.40461 11.8999H1.06372V14.4908C2.70917 17.759 6.09096 19.9999 10 19.9999Z" fill="#34A853"/>
<path fill-rule="evenodd" clip-rule="evenodd" d="M4.40452 11.9001C4.20452 11.3002 4.09088 10.6592 4.09088 10.0002C4.09088 9.34107 4.20452 8.70017 4.40452 8.10017V5.50928H1.06363C0.386361 6.85927 0 8.38653 0 10.0002C0 11.6138 0.386361 13.141 1.06363 14.491L4.40452 11.9001Z" fill="#FBBC05"/>
<path fill-rule="evenodd" clip-rule="evenodd" d="M10 3.97725C11.4682 3.97725 12.7864 4.48179 13.8227 5.47269L16.6909 2.60453C14.9591 0.990903 12.6955 0 10 0C6.09096 0 2.70917 2.2409 1.06372 5.50906L4.40461 8.09995C5.19097 5.73633 7.3955 3.97725 10 3.97725Z" fill="#EA4335"/>
</svg>
