<svg width="40" height="40" viewBox="0 0 40 40" fill="none" xmlns="http://www.w3.org/2000/svg">
<path d="M40 0H0V39.9315H40V0Z" fill="black"/>
<path d="M12.9748 13.6627V24.6835C12.9748 26.7216 11.3978 28.3068 9.53396 28.3068H9.17554V10.1904C9.46228 13.5118 12.9748 13.6627 12.9748 13.6627Z" fill="white"/>
<path d="M22.939 27.703C22.939 26.4952 24.0143 25.6649 25.1612 25.9668C25.7347 26.1178 26.2365 26.1933 26.6666 26.1933C27.5985 26.1933 28.3153 25.8159 28.3153 24.8345C28.3153 23.7023 27.1684 23.5513 25.663 23.0984C24.0143 22.4945 22.5806 21.6642 22.5806 19.5506C22.5806 17.2106 24.2293 15.7764 26.7383 15.7764C27.8852 15.7764 29.3189 16.0783 30.3225 16.6822C30.3225 17.8899 29.2472 18.7203 28.172 18.4183C27.5985 18.2674 27.0967 18.1919 26.6666 18.1919C25.8064 18.1919 25.1612 18.5693 25.1612 19.3996C25.1612 20.5319 26.2365 20.6074 27.6702 21.0603C29.4623 21.6642 30.896 22.57 30.896 24.7591C30.896 27.1746 29.1755 28.6843 26.5949 28.6843C25.4479 28.6088 24.0143 28.3069 22.939 27.703Z" fill="white"/>
<path d="M22.2224 15.9273C22.2224 20.1544 19.2833 21.8151 14.1937 21.8151H12.9751V18.5692H14.3371C17.4912 18.5692 18.4231 17.8144 18.4231 16.1537C18.4231 14.1156 17.1328 13.6627 14.2654 13.6627H13.4052L13.1901 12.3795L12.4016 10.1904H14.3371C18.4948 10.1904 22.2224 11.3982 22.2224 15.9273Z" fill="white"/>
<path d="M13.405 13.6628H12.9749C12.9749 13.6628 9.53402 13.5118 9.1756 10.1905L9.03223 8.52979C9.03223 8.52979 10.5376 10.115 12.4014 10.1905L13.1899 12.3795L13.405 13.6628Z" fill="white"/>
<path d="M1.43358 8.52984C1.14685 8.52984 0.860107 8.30338 0.860107 7.92596V1.13232H7.67014C7.95688 1.13232 8.24362 1.35878 8.24362 1.7362C8.24362 2.11363 8.02857 2.34008 7.67014 2.34008H1.93538V8.00145C2.00706 8.2279 1.79201 8.52984 1.43358 8.52984Z" fill="white"/>
<path d="M38.4946 31.4019C38.7813 31.4019 39.0681 31.6283 39.0681 32.0057V38.7994H32.258C31.9713 38.7994 31.6846 38.5729 31.6846 38.1955C31.6846 37.8936 31.8996 37.5916 32.258 37.5916H37.9928V31.9302C37.9211 31.7038 38.2079 31.4019 38.4946 31.4019Z" fill="white"/>
</svg>
