<svg width="179" height="40" viewBox="0 0 179 40" fill="none" xmlns="http://www.w3.org/2000/svg">
<path d="M53.64 14C54.8533 14 55.9067 14.2 56.8 14.6C57.7067 15 58.4 15.5733 58.88 16.32C59.36 17.0667 59.6 17.9533 59.6 18.98C59.6 19.9933 59.36 20.88 58.88 21.64C58.4 22.3867 57.7067 22.96 56.8 23.36C55.9067 23.76 54.8533 23.96 53.64 23.96H50.48V28H47.88V14H53.64ZM53.52 21.76C54.6533 21.76 55.5133 21.52 56.1 21.04C56.6867 20.56 56.98 19.8733 56.98 18.98C56.98 18.0867 56.6867 17.4 56.1 16.92C55.5133 16.44 54.6533 16.2 53.52 16.2H50.48V21.76H53.52ZM61.8588 17.32H64.3588V28H61.8588V17.32ZM63.1188 15.56C62.6654 15.56 62.2854 15.42 61.9788 15.14C61.6721 14.8467 61.5188 14.4867 61.5188 14.06C61.5188 13.6333 61.6721 13.28 61.9788 13C62.2854 12.7067 62.6654 12.56 63.1188 12.56C63.5721 12.56 63.9521 12.7 64.2588 12.98C64.5654 13.2467 64.7188 13.5867 64.7188 14C64.7188 14.44 64.5654 14.8133 64.2588 15.12C63.9654 15.4133 63.5854 15.56 63.1188 15.56ZM72.54 28.14C71.4333 28.14 70.44 27.9067 69.56 27.44C68.68 26.9733 67.9933 26.3267 67.5 25.5C67.0067 24.66 66.76 23.7133 66.76 22.66C66.76 21.6067 67.0067 20.6667 67.5 19.84C67.9933 19.0133 68.6733 18.3667 69.54 17.9C70.42 17.4333 71.42 17.2 72.54 17.2C73.5933 17.2 74.5133 17.4133 75.3 17.84C76.1 18.2667 76.7 18.88 77.1 19.68L75.18 20.8C74.8733 20.3067 74.4867 19.94 74.02 19.7C73.5667 19.4467 73.0667 19.32 72.52 19.32C71.5867 19.32 70.8133 19.6267 70.2 20.24C69.5867 20.84 69.28 21.6467 69.28 22.66C69.28 23.6733 69.58 24.4867 70.18 25.1C70.7933 25.7 71.5733 26 72.52 26C73.0667 26 73.5667 25.88 74.02 25.64C74.4867 25.3867 74.8733 25.0133 75.18 24.52L77.1 25.64C76.6867 26.44 76.08 27.06 75.28 27.5C74.4933 27.9267 73.58 28.14 72.54 28.14ZM85.8178 27.42C85.5245 27.66 85.1645 27.84 84.7378 27.96C84.3245 28.08 83.8845 28.14 83.4178 28.14C82.2445 28.14 81.3378 27.8333 80.6978 27.22C80.0578 26.6067 79.7378 25.7133 79.7378 24.54V19.4H77.9778V17.4H79.7378V14.96H82.2378V17.4H85.0978V19.4H82.2378V24.48C82.2378 25 82.3645 25.4 82.6178 25.68C82.8711 25.9467 83.2378 26.08 83.7178 26.08C84.2778 26.08 84.7445 25.9333 85.1178 25.64L85.8178 27.42ZM98.2144 17.32V28H95.8344V26.64C95.4344 27.12 94.9344 27.4933 94.3344 27.76C93.7344 28.0133 93.0877 28.14 92.3944 28.14C90.9677 28.14 89.841 27.7467 89.0144 26.96C88.201 26.16 87.7944 24.98 87.7944 23.42V17.32H90.2944V23.08C90.2944 24.04 90.5077 24.76 90.9344 25.24C91.3744 25.7067 91.9944 25.94 92.7944 25.94C93.6877 25.94 94.3944 25.6667 94.9144 25.12C95.4477 24.56 95.7144 23.76 95.7144 22.72V17.32H98.2144ZM103.868 18.88C104.588 17.76 105.854 17.2 107.668 17.2V19.58C107.454 19.54 107.261 19.52 107.088 19.52C106.114 19.52 105.354 19.8067 104.808 20.38C104.261 20.94 103.988 21.7533 103.988 22.82V28H101.488V17.32H103.868V18.88ZM119.731 22.72C119.731 22.8933 119.717 23.14 119.691 23.46H111.311C111.457 24.2467 111.837 24.8733 112.451 25.34C113.077 25.7933 113.851 26.02 114.771 26.02C115.944 26.02 116.911 25.6333 117.671 24.86L119.011 26.4C118.531 26.9733 117.924 27.4067 117.191 27.7C116.457 27.9933 115.631 28.14 114.711 28.14C113.537 28.14 112.504 27.9067 111.611 27.44C110.717 26.9733 110.024 26.3267 109.531 25.5C109.051 24.66 108.811 23.7133 108.811 22.66C108.811 21.62 109.044 20.6867 109.511 19.86C109.991 19.02 110.651 18.3667 111.491 17.9C112.331 17.4333 113.277 17.2 114.331 17.2C115.371 17.2 116.297 17.4333 117.111 17.9C117.937 18.3533 118.577 19 119.031 19.84C119.497 20.6667 119.731 21.6267 119.731 22.72ZM114.331 19.2C113.531 19.2 112.851 19.44 112.291 19.92C111.744 20.3867 111.411 21.0133 111.291 21.8H117.351C117.244 21.0267 116.917 20.4 116.371 19.92C115.824 19.44 115.144 19.2 114.331 19.2ZM126.712 28.2C125.632 28.2 124.586 28.0467 123.572 27.74C122.572 27.4333 121.779 27.0267 121.192 26.52L122.092 24.5C122.666 24.9533 123.366 25.3267 124.192 25.62C125.032 25.9 125.872 26.04 126.712 26.04C127.752 26.04 128.526 25.8733 129.032 25.54C129.552 25.2067 129.812 24.7667 129.812 24.22C129.812 23.82 129.666 23.4933 129.372 23.24C129.092 22.9733 128.732 22.7667 128.292 22.62C127.852 22.4733 127.252 22.3067 126.492 22.12C125.426 21.8667 124.559 21.6133 123.892 21.36C123.239 21.1067 122.672 20.7133 122.192 20.18C121.726 19.6333 121.492 18.9 121.492 17.98C121.492 17.2067 121.699 16.5067 122.112 15.88C122.539 15.24 123.172 14.7333 124.012 14.36C124.866 13.9867 125.906 13.8 127.132 13.8C127.986 13.8 128.826 13.9067 129.652 14.12C130.479 14.3333 131.192 14.64 131.792 15.04L130.972 17.06C130.359 16.7 129.719 16.4267 129.052 16.24C128.386 16.0533 127.739 15.96 127.112 15.96C126.086 15.96 125.319 16.1333 124.812 16.48C124.319 16.8267 124.072 17.2867 124.072 17.86C124.072 18.26 124.212 18.5867 124.492 18.84C124.786 19.0933 125.152 19.2933 125.592 19.44C126.032 19.5867 126.632 19.7533 127.392 19.94C128.432 20.18 129.286 20.4333 129.952 20.7C130.619 20.9533 131.186 21.3467 131.652 21.88C132.132 22.4133 132.372 23.1333 132.372 24.04C132.372 24.8133 132.159 25.5133 131.732 26.14C131.319 26.7667 130.686 27.2667 129.832 27.64C128.979 28.0133 127.939 28.2 126.712 28.2ZM141.13 27.42C140.837 27.66 140.477 27.84 140.05 27.96C139.637 28.08 139.197 28.14 138.73 28.14C137.557 28.14 136.65 27.8333 136.01 27.22C135.37 26.6067 135.05 25.7133 135.05 24.54V19.4H133.29V17.4H135.05V14.96H137.55V17.4H140.41V19.4H137.55V24.48C137.55 25 137.677 25.4 137.93 25.68C138.184 25.9467 138.55 26.08 139.03 26.08C139.59 26.08 140.057 25.9333 140.43 25.64L141.13 27.42ZM147.635 28.14C146.555 28.14 145.582 27.9067 144.715 27.44C143.849 26.9733 143.169 26.3267 142.675 25.5C142.195 24.66 141.955 23.7133 141.955 22.66C141.955 21.6067 142.195 20.6667 142.675 19.84C143.169 19.0133 143.849 18.3667 144.715 17.9C145.582 17.4333 146.555 17.2 147.635 17.2C148.729 17.2 149.709 17.4333 150.575 17.9C151.442 18.3667 152.115 19.0133 152.595 19.84C153.089 20.6667 153.335 21.6067 153.335 22.66C153.335 23.7133 153.089 24.66 152.595 25.5C152.115 26.3267 151.442 26.9733 150.575 27.44C149.709 27.9067 148.729 28.14 147.635 28.14ZM147.635 26C148.555 26 149.315 25.6933 149.915 25.08C150.515 24.4667 150.815 23.66 150.815 22.66C150.815 21.66 150.515 20.8533 149.915 20.24C149.315 19.6267 148.555 19.32 147.635 19.32C146.715 19.32 145.955 19.6267 145.355 20.24C144.769 20.8533 144.475 21.66 144.475 22.66C144.475 23.66 144.769 24.4667 145.355 25.08C145.955 25.6933 146.715 26 147.635 26ZM160.626 28.14C159.519 28.14 158.526 27.9067 157.646 27.44C156.766 26.9733 156.079 26.3267 155.586 25.5C155.093 24.66 154.846 23.7133 154.846 22.66C154.846 21.6067 155.093 20.6667 155.586 19.84C156.079 19.0133 156.759 18.3667 157.626 17.9C158.506 17.4333 159.506 17.2 160.626 17.2C161.679 17.2 162.599 17.4133 163.386 17.84C164.186 18.2667 164.786 18.88 165.186 19.68L163.266 20.8C162.959 20.3067 162.573 19.94 162.106 19.7C161.653 19.4467 161.153 19.32 160.606 19.32C159.673 19.32 158.899 19.6267 158.286 20.24C157.673 20.84 157.366 21.6467 157.366 22.66C157.366 23.6733 157.666 24.4867 158.266 25.1C158.879 25.7 159.659 26 160.606 26C161.153 26 161.653 25.88 162.106 25.64C162.573 25.3867 162.959 25.0133 163.266 24.52L165.186 25.64C164.773 26.44 164.166 27.06 163.366 27.5C162.579 27.9267 161.666 28.14 160.626 28.14ZM171.609 23.42L169.749 25.18V28H167.249V13.16H169.749V22.12L174.929 17.32H177.929L173.469 21.8L178.349 28H175.309L171.609 23.42Z" fill="black"/>
<path d="M40 0H0V39.9315H40V0Z" fill="black"/>
<path d="M12.9748 13.6627V24.6835C12.9748 26.7216 11.3978 28.3068 9.53396 28.3068H9.17554V10.1904C9.46228 13.5118 12.9748 13.6627 12.9748 13.6627Z" fill="white"/>
<path d="M22.939 27.703C22.939 26.4952 24.0143 25.6649 25.1612 25.9668C25.7347 26.1178 26.2365 26.1933 26.6666 26.1933C27.5985 26.1933 28.3153 25.8159 28.3153 24.8345C28.3153 23.7023 27.1684 23.5513 25.663 23.0984C24.0143 22.4945 22.5806 21.6642 22.5806 19.5506C22.5806 17.2106 24.2293 15.7764 26.7383 15.7764C27.8852 15.7764 29.3189 16.0783 30.3225 16.6822C30.3225 17.8899 29.2472 18.7203 28.172 18.4183C27.5985 18.2674 27.0967 18.1919 26.6666 18.1919C25.8064 18.1919 25.1612 18.5693 25.1612 19.3996C25.1612 20.5319 26.2365 20.6074 27.6702 21.0603C29.4623 21.6642 30.896 22.57 30.896 24.7591C30.896 27.1746 29.1755 28.6843 26.5949 28.6843C25.4479 28.6088 24.0143 28.3069 22.939 27.703Z" fill="white"/>
<path d="M22.2224 15.9273C22.2224 20.1544 19.2833 21.8151 14.1937 21.8151H12.9751V18.5692H14.3371C17.4912 18.5692 18.4231 17.8144 18.4231 16.1537C18.4231 14.1156 17.1328 13.6627 14.2654 13.6627H13.4052L13.1901 12.3795L12.4016 10.1904H14.3371C18.4948 10.1904 22.2224 11.3982 22.2224 15.9273Z" fill="white"/>
<path d="M13.405 13.6628H12.9749C12.9749 13.6628 9.53402 13.5118 9.1756 10.1905L9.03223 8.52979C9.03223 8.52979 10.5376 10.115 12.4014 10.1905L13.1899 12.3795L13.405 13.6628Z" fill="white"/>
<path d="M1.43358 8.52984C1.14685 8.52984 0.860107 8.30338 0.860107 7.92596V1.13232H7.67014C7.95688 1.13232 8.24362 1.35878 8.24362 1.7362C8.24362 2.11363 8.02857 2.34008 7.67014 2.34008H1.93538V8.00145C2.00706 8.2279 1.79201 8.52984 1.43358 8.52984Z" fill="white"/>
<path d="M38.4946 31.4019C38.7813 31.4019 39.0681 31.6283 39.0681 32.0057V38.7994H32.258C31.9713 38.7994 31.6846 38.5729 31.6846 38.1955C31.6846 37.8936 31.8996 37.5916 32.258 37.5916H37.9928V31.9302C37.9211 31.7038 38.2079 31.4019 38.4946 31.4019Z" fill="white"/>
</svg>
